<?xml version="1.0" standalone="no"?>
<!DOCTYPE svg PUBLIC "-//W3C//DTD SVG 20010904//EN"
 "http://www.w3.org/TR/2001/REC-SVG-20010904/DTD/svg10.dtd">
<svg version="1.0" xmlns="http://www.w3.org/2000/svg"
 width="500.000000pt" height="500.000000pt" viewBox="0 0 500.000000 500.000000"
 preserveAspectRatio="xMidYMid meet">
<metadata>
Created by potrace 1.11, written by Peter Selinger 2001-2013
</metadata>
<g transform="translate(0.000000,500.000000) scale(0.100000,-0.100000)"
fill="#000000" stroke="none">
<path d="M2375 4658 c-2 -7 -6 -30 -10 -51 -6 -38 -7 -38 -26 -21 -14 12 -19
14 -19 4 0 -9 -4 -8 -13 4 -17 23 -51 14 -97 -25 -31 -27 -32 -29 -9 -20 32
12 63 -3 39 -19 -13 -8 -13 -10 2 -10 12 0 15 -6 12 -23 -2 -16 4 -30 20 -44
13 -12 26 -19 29 -17 2 2 9 -1 15 -8 7 -9 6 -29 -4 -67 -7 -29 -11 -58 -7 -64
4 -6 0 -8 -10 -4 -12 4 -16 1 -14 -11 1 -9 -2 -17 -8 -17 -5 0 -8 5 -6 10 2 6
3 20 3 32 0 13 4 20 8 18 11 -7 21 22 14 40 -4 8 -2 15 3 15 5 0 9 9 10 21 1
12 -3 19 -10 16 -7 -2 -11 -12 -11 -21 1 -9 -2 -16 -8 -16 -5 0 -7 -4 -4 -9 8
-12 -4 -42 -14 -36 -4 2 -7 16 -7 30 0 13 4 22 9 19 6 -4 7 2 3 16 -5 15 -4
20 4 16 17 -11 13 10 -4 24 -17 14 -16 14 -21 -20 -16 -123 -16 -133 -6 -126
8 4 10 2 6 -7 -3 -8 6 -26 20 -40 14 -15 26 -30 26 -35 0 -6 7 -12 15 -16 16
-6 21 15 8 28 -5 4 -8 18 -8 31 -1 14 2 22 5 19 3 -3 5 -14 5 -25 0 -10 5 -18
10 -18 6 1 9 5 7 10 -1 5 3 9 8 9 12 0 30 -41 23 -52 -2 -5 0 -8 4 -8 12 0 9
-85 -4 -113 -6 -12 -18 -39 -26 -59 -17 -39 -40 -49 -51 -22 -3 8 -2 13 3 10
4 -3 17 1 27 9 13 10 15 14 5 15 -11 0 -13 12 -8 60 4 37 3 60 -3 60 -6 0 -10
5 -10 11 0 5 5 7 10 4 6 -3 10 -2 10 3 0 6 -6 12 -14 15 -12 5 -13 -8 -9 -73
5 -72 4 -79 -16 -89 -12 -7 -19 -16 -16 -22 4 -5 -1 -9 -10 -9 -11 0 -15 -5
-11 -15 3 -8 0 -18 -7 -22 -13 -8 -37 -56 -37 -73 0 -6 5 -10 10 -10 6 0 9 3
9 8 -4 22 2 42 11 37 6 -3 10 -23 9 -43 0 -20 -3 -31 -6 -24 -9 22 -20 13 -16
-13 6 -27 39 -53 64 -50 11 2 15 -3 12 -15 -4 -14 2 -18 29 -18 18 0 43 -2 56
-5 13 -4 20 -2 17 4 -4 5 -2 9 4 9 5 0 12 -6 14 -12 4 -10 6 -10 6 0 1 10 6
10 21 2 15 -8 20 -8 20 2 0 9 3 9 10 -2 9 -13 10 -13 10 0 0 9 3 11 8 5 9 -13
35 -18 27 -5 -3 5 -2 10 4 10 5 0 12 -6 14 -12 4 -10 6 -9 6 1 1 11 4 11 16 1
9 -7 15 -8 15 -2 0 12 33 10 42 -3 5 -6 8 -4 8 5 0 13 1 13 10 0 5 -8 10 -10
10 -4 0 7 13 10 30 8 24 -3 30 0 30 15 0 11 9 21 23 25 13 3 33 23 45 45 21
37 22 44 11 82 -7 22 -19 43 -26 46 -7 3 -13 12 -13 20 0 7 -13 22 -30 31 -16
9 -30 22 -30 29 0 6 -4 14 -9 17 -5 4 -7 -4 -3 -16 4 -16 2 -19 -9 -13 -9 5
-8 1 3 -11 10 -11 14 -25 9 -32 -10 -17 -21 -3 -50 62 -14 33 -21 69 -21 114
0 64 0 65 20 47 11 -10 20 -25 20 -33 0 -9 6 -12 17 -8 15 6 14 4 -2 -14 -18
-20 -18 -21 0 -14 14 6 16 4 10 -7 -4 -8 -4 -11 0 -6 5 4 9 20 10 36 1 15 12
48 24 72 38 73 44 92 25 85 -10 -4 -18 0 -21 13 -3 12 -11 17 -19 14 -9 -3
-14 2 -14 16 0 12 5 21 11 21 5 0 7 -4 4 -10 -4 -6 1 -7 11 -3 12 4 15 3 10
-5 -4 -7 -2 -12 4 -12 6 0 8 -4 5 -10 -3 -5 -1 -10 5 -10 6 0 10 12 8 28 -2
16 -8 26 -16 24 -8 -1 -11 2 -6 9 4 7 7 27 6 46 -1 18 3 33 9 33 6 0 9 -6 6
-12 -2 -7 3 -21 11 -31 15 -16 14 -17 -4 -11 -16 6 -17 5 -6 -7 10 -11 19 -6
52 26 41 40 48 63 8 29 -12 -10 -18 -14 -15 -7 8 12 -27 29 -50 25 -20 -4 -15
26 5 31 16 4 16 5 0 6 -10 0 -18 5 -18 11 0 5 8 13 18 19 16 9 15 12 -7 33
l-23 23 12 -23 c10 -20 9 -26 -7 -38 -10 -7 -21 -14 -25 -14 -5 0 -8 -5 -8
-11 0 -9 4 -8 14 0 11 9 13 4 12 -29 -1 -22 -7 -44 -14 -50 -9 -7 -9 -7 -2 2
15 18 12 28 -5 22 -10 -4 -15 0 -15 11 0 9 4 14 9 10 5 -3 12 -1 15 4 4 5 -2
12 -13 16 -13 4 -17 12 -14 25 4 14 0 20 -11 20 -10 0 -14 -4 -11 -10 3 -5 0
-10 -7 -10 -10 0 -10 -2 1 -9 11 -7 9 -12 -10 -22 -20 -10 -22 -10 -13 2 6 8
10 24 8 37 -3 14 1 22 10 22 8 0 24 9 37 21 l24 21 -27 -16 c-42 -25 -55 -20
-70 27 -12 34 -20 43 -42 45 -18 2 -26 0 -21 -7 3 -6 1 -11 -4 -11 -6 0 -11 5
-11 10 0 15 -130 13 -135 -2z m75 -10 c0 -5 -12 -8 -27 -8 -20 0 -24 -3 -16
-11 8 -8 17 -7 34 2 13 7 26 13 29 12 3 0 20 -3 38 -6 24 -5 32 -3 32 8 0 21
17 19 30 -4 7 -13 7 -22 0 -26 -5 -3 -10 1 -10 10 0 10 -5 13 -12 9 -8 -5 -3
-14 14 -28 25 -21 43 -82 26 -92 -4 -3 -8 -15 -8 -26 0 -38 -47 -69 -88 -59
-2 1 0 6 4 12 4 7 10 7 16 1 11 -11 38 8 38 26 0 6 4 12 8 14 5 2 12 25 16 53
5 38 4 47 -6 37 -18 -18 -30 -14 -23 7 4 14 0 23 -13 30 -25 13 -43 -5 -32
-34 4 -11 5 -27 2 -35 -4 -12 -2 -13 9 -2 18 17 27 15 38 -7 8 -14 7 -22 -4
-31 -13 -11 -14 -10 -10 2 6 16 -4 19 -65 20 -19 1 -27 3 -17 5 10 3 16 10 14
16 -2 7 0 22 4 34 7 19 4 24 -17 29 -28 7 -53 -14 -32 -27 22 -14 -2 -27 -27
-16 -25 12 -36 43 -12 34 9 -3 12 4 9 29 -4 32 -3 33 27 31 17 -1 31 -5 31 -9z
m-145 -91 c-3 -12 -7 -32 -8 -45 -2 -30 -18 -23 -30 14 -6 16 -17 33 -25 38
-12 7 -11 11 9 21 32 18 61 2 54 -28z m155 33 c0 -5 -7 -10 -15 -10 -8 0 -15
5 -15 10 0 6 7 10 15 10 8 0 15 -4 15 -10z m75 0 c-3 -5 -10 -10 -16 -10 -5 0
-9 5 -9 10 0 6 7 10 16 10 8 0 12 -4 9 -10z m-180 -60 c4 -17 3 -21 -3 -12 -7
11 -10 10 -16 -3 -3 -9 -4 -21 -1 -26 4 -5 -1 -6 -9 -3 -18 7 -21 24 -5 24 8
0 7 6 -2 17 -12 15 -12 16 4 10 9 -3 17 -2 17 3 0 6 -7 10 -15 10 -9 0 -12 6
-8 16 5 13 8 13 18 2 7 -7 16 -24 20 -38z m29 24 c9 -3 13 -10 10 -15 -8 -14
-21 -11 -28 6 -6 17 -4 18 18 9z m72 -59 c18 -8 35 -9 47 -3 12 6 17 5 17 -6
0 -18 -60 -28 -67 -10 -2 6 -13 14 -24 17 -12 3 -19 13 -18 29 0 20 1 21 8 4
4 -10 20 -24 37 -31z m-59 -1 c-9 -9 -28 6 -21 18 4 6 10 6 17 -1 6 -6 8 -13
4 -17z m97 5 c-3 -5 -10 -7 -15 -3 -5 3 -7 10 -3 15 3 5 10 7 15 3 5 -3 7 -10
3 -15z m156 1 c0 -5 -6 -10 -12 -11 -10 0 -10 -2 -1 -5 7 -3 9 -12 6 -21 -4
-11 -2 -14 5 -9 8 5 11 0 9 -16 -5 -27 -22 -27 -23 1 -1 11 -4 27 -8 36 -3 9
-4 21 0 26 7 12 24 11 24 -1z m-285 -10 c3 -5 1 -10 -4 -10 -6 0 -11 5 -11 10
0 6 2 10 4 10 3 0 8 -4 11 -10z m-65 -20 c0 13 47 6 64 -10 7 -7 -3 -51 -25
-105 -7 -19 -8 -19 -8 1 -1 12 6 38 14 58 9 21 11 36 5 36 -5 0 -10 -4 -10
-10 0 -17 -14 -11 -46 18 -17 15 -22 21 -12 13 14 -11 18 -11 18 -1z m139 -17
c22 -14 39 -28 37 -31 -6 -6 -73 28 -87 44 -19 23 5 17 50 -13z m168 8 c1 -11
-4 -24 -11 -30 -10 -8 -11 -4 -8 19 5 34 17 40 19 11z m153 -11 c0 -5 -7 -7
-15 -4 -8 4 -15 8 -15 10 0 2 7 4 15 4 8 0 15 -4 15 -10z m-360 -14 c0 -2 -8
-10 -17 -17 -16 -13 -17 -12 -4 4 13 16 21 21 21 13z m223 -39 c-3 -5 0 -7 8
-3 8 3 22 9 32 12 9 4 17 10 17 15 0 5 5 9 12 9 6 0 1 -11 -12 -25 -12 -13
-27 -22 -32 -19 -5 3 -8 -2 -6 -11 2 -10 -3 -19 -10 -21 -7 -1 -8 0 -2 3 6 3
2 15 -10 30 -11 14 -17 30 -14 35 4 6 10 5 15 -3 4 -7 5 -17 2 -22z m-208 13
c-3 -5 -11 -10 -16 -10 -6 0 -7 5 -4 10 3 6 11 10 16 10 6 0 7 -4 4 -10z m168
-3 c4 3 7 1 7 -5 0 -21 -16 -21 -30 1 -12 19 -11 21 2 10 8 -7 18 -10 21 -6z
m-143 -12 c-7 -9 -15 -13 -17 -11 -7 7 7 26 19 26 6 0 6 -6 -2 -15z m30 -10
c-10 -12 -10 -15 0 -15 8 0 0 -13 -16 -29 -35 -35 -47 -32 -14 4 15 16 19 25
10 25 -9 0 -8 6 5 20 21 23 35 19 15 -5z m60 15 c0 10 3 10 15 0 8 -7 15 -19
15 -27 0 -11 4 -11 21 -3 11 7 23 9 27 6 3 -3 0 -6 -6 -6 -7 0 -21 -9 -32 -20
-11 -11 -22 -15 -25 -10 -4 6 -2 10 3 10 6 0 8 9 5 20 -10 36 -29 21 -24 -18
2 -10 -2 -10 -18 0 -26 16 -28 33 -3 23 14 -5 15 -4 5 6 -18 18 -16 34 2 19
12 -10 15 -10 15 0z m-120 -24 c0 -3 -4 -8 -10 -11 -5 -3 -10 -1 -10 4 0 6 5
11 10 11 6 0 10 -2 10 -4z m-8 -48 c-7 -7 -12 -8 -12 -2 0 14 12 26 19 19 2
-3 -1 -11 -7 -17z m129 1 c16 -11 27 -24 24 -29 -2 -4 5 -21 17 -36 l22 -29
-27 24 c-15 14 -26 30 -25 37 2 7 -1 13 -7 12 -5 0 -9 -4 -8 -9 2 -4 -5 -5
-14 -2 -12 5 -14 3 -8 -7 5 -9 4 -11 -4 -6 -6 4 -9 11 -6 16 9 15 -15 22 -30
10 -10 -8 -15 -9 -15 -2 0 9 38 42 48 42 2 0 17 -9 33 -21z m129 14 c0 -5 -9
-19 -20 -33 -16 -20 -19 -21 -13 -5 10 28 33 55 33 38z m-400 -24 c0 -6 -4 -7
-10 -4 -5 3 -10 11 -10 16 0 6 5 7 10 4 6 -3 10 -11 10 -16z m340 11 c8 -5 11
-10 5 -10 -5 0 -17 5 -25 10 -8 5 -10 10 -5 10 6 0 17 -5 25 -10z m71 -13
c-10 -9 -11 -8 -5 6 3 10 9 15 12 12 3 -3 0 -11 -7 -18z m-330 -22 c5 3 6 -2
2 -11 -6 -16 -7 -16 -19 1 -7 9 -10 24 -6 33 6 14 7 13 10 -6 2 -12 8 -20 13
-17z m244 15 c3 -5 1 -10 -4 -10 -6 0 -11 5 -11 10 0 6 2 10 4 10 3 0 8 -4 11
-10z m109 -45 c-19 -29 -26 -32 -17 -7 6 15 5 15 -10 3 -16 -12 -17 -12 -11 5
6 16 4 16 -18 -4 l-25 -23 -6 21 c-4 17 -3 19 8 10 10 -8 16 -7 23 6 7 13 13
14 29 5 20 -10 33 -6 33 11 0 5 -4 6 -10 3 -11 -7 -14 8 -3 19 17 16 23 -25 7
-49z m-284 27 c0 -10 -7 -19 -14 -19 -11 0 -13 5 -5 19 5 10 12 18 14 18 3 0
5 -8 5 -18z m30 -2 c0 -5 -5 -10 -11 -10 -5 0 -7 5 -4 10 3 6 8 10 11 10 2 0
4 -4 4 -10z m45 -30 c-11 -18 -22 -11 -20 13 4 33 5 34 16 14 5 -9 7 -22 4
-27z m-38 -10 c1 -11 -3 -23 -9 -26 -7 -5 -9 -1 -5 9 3 10 2 17 -4 17 -6 0 -7
5 -4 10 10 16 21 12 22 -10z m105 2 c11 -15 11 -15 -3 -4 -9 7 -24 10 -33 6
-9 -3 -16 -2 -16 3 0 16 38 12 52 -5z m-37 -25 c-11 -7 -27 -12 -35 -12 -11 0
-16 -14 -18 -53 -2 -29 -7 -50 -12 -47 -4 3 -6 14 -3 24 3 10 -1 22 -7 26 -11
7 -10 -24 6 -98 4 -19 2 -27 -6 -25 -7 2 -15 -4 -18 -12 -2 -8 -1 -12 3 -8 9
9 35 -9 35 -24 0 -6 -7 -5 -15 2 -9 7 -15 8 -15 2 0 -5 -7 -13 -16 -16 -13 -5
-15 0 -9 34 4 26 3 40 -4 40 -6 0 -8 -7 -5 -15 4 -9 0 -15 -9 -15 -13 0 -15 8
-10 38 7 43 13 55 13 24 0 -12 4 -22 9 -22 4 0 4 23 0 52 -5 28 -6 55 -3 60 3
4 0 8 -5 8 -17 0 -13 17 5 24 9 4 22 2 29 -4 10 -8 19 -5 34 11 12 13 21 17
21 10 0 -9 6 -8 22 3 12 9 24 13 27 10 3 -3 -3 -11 -14 -17z m60 -7 c-3 -5 -1
-10 4 -10 15 0 14 -66 -1 -93 -13 -25 -11 -76 4 -94 5 -7 8 -18 6 -24 -2 -7
-9 1 -16 17 -6 16 -17 43 -23 59 -7 17 -11 41 -11 55 1 14 -1 19 -4 12 -3 -6
-10 -9 -16 -6 -8 5 -7 -27 1 -66 1 -3 6 2 11 10 7 11 11 4 16 -28 4 -23 10
-42 15 -42 5 0 9 -4 9 -9 0 -6 -9 -9 -20 -8 -14 1 -18 6 -15 18 6 18 -3 49
-14 49 -4 0 -7 -16 -6 -35 1 -22 -3 -36 -13 -40 -31 -12 -37 17 -34 143 2 39
6 52 17 52 8 0 15 -7 15 -15 0 -8 4 -15 9 -15 4 0 6 12 3 28 -5 24 -4 26 11
13 15 -12 17 -11 17 7 0 18 11 29 33 31 5 1 5 -3 2 -9z m25 -167 c0 -30 -9
-27 -15 6 -2 11 0 21 6 21 5 0 9 -12 9 -27z m130 -59 c0 -3 -9 -2 -20 1 -13 4
-20 2 -20 -6 0 -7 -2 -10 -5 -7 -3 3 -3 12 1 21 5 13 10 14 25 6 10 -5 19 -12
19 -15z m-340 6 c0 -13 -11 -13 -30 0 -12 8 -11 10 8 10 12 0 22 -4 22 -10z
m152 -48 c18 -11 30 -28 34 -50 8 -41 -10 -86 -31 -78 -8 3 -14 0 -12 -7 4
-20 -61 -16 -89 5 -13 11 -22 23 -19 28 3 5 1 11 -3 14 -16 10 -1 60 24 81 30
26 60 28 96 7z m-231 -40 c7 -19 15 -23 34 -20 14 3 26 0 29 -8 3 -8 0 -14 -6
-14 -7 0 1 -13 17 -30 16 -16 23 -30 17 -30 -7 0 -12 4 -12 9 0 9 -38 26 -82
35 -17 4 -28 2 -28 -4 0 -6 -5 -8 -12 -4 -8 5 -9 2 -5 -9 3 -10 2 -17 -3 -17
-16 0 -11 37 5 44 8 3 12 12 9 21 -3 8 -1 15 5 15 6 0 11 -4 11 -10 0 -5 4
-10 9 -10 5 0 4 14 -2 30 -12 32 -27 40 -27 15 0 -8 -4 -15 -10 -15 -12 0 -9
19 5 36 13 15 33 0 46 -34z m98 22 c-17 -21 -20 -41 -9 -70 7 -17 6 -22 -4
-18 -26 10 -12 104 16 104 6 0 6 -6 -3 -16z m212 -6 c21 -24 23 -34 9 -43 -5
-3 -10 3 -10 14 0 12 -4 21 -9 21 -5 0 -11 7 -15 15 -8 22 4 18 25 -7z m62
-27 c-4 -3 -9 -12 -11 -20 -13 -60 -20 -83 -21 -65 -1 26 -23 46 -43 39 -11
-4 -14 2 -14 25 0 16 3 30 8 30 4 0 8 -9 8 -19 0 -14 6 -19 20 -18 11 1 20 4
20 8 0 4 3 15 7 25 4 12 3 15 -5 10 -7 -4 -12 -1 -12 9 0 14 3 14 26 -1 14
-10 22 -20 17 -23z m87 -17 c0 -19 -4 -33 -9 -29 -5 3 -11 -3 -13 -12 -3 -11
-6 -4 -9 15 -4 22 -1 39 8 48 21 20 23 18 23 -22z m-53 -37 c-1 -24 -7 -33
-21 -35 -17 -1 -17 0 -2 17 20 22 21 38 1 21 -12 -10 -15 -10 -15 2 0 18 9 28
27 28 9 0 12 -11 10 -33z m-84 -32 c-3 -9 -8 -14 -10 -11 -3 3 -2 9 2 15 9 16
15 13 8 -4z m-283 -30 c0 -7 -30 -13 -34 -7 -3 4 4 9 15 9 10 1 19 0 19 -2z
m60 1 c0 -2 -9 -6 -20 -9 -11 -3 -20 -1 -20 4 0 5 9 9 20 9 11 0 20 -2 20 -4z
m70 -6 c-20 -13 -33 -13 -25 0 3 6 14 10 23 10 15 0 15 -2 2 -10z m50 6 c0 -2
-7 -7 -16 -10 -8 -3 -12 -2 -9 4 6 10 25 14 25 6z m50 -6 c-18 -12 -30 -13
-30 -2 0 4 10 9 22 9 18 2 20 0 8 -7z m64 -1 c-4 -7 -44 0 -44 7 0 2 11 3 24
2 14 -1 23 -5 20 -9z m41 1 c3 -6 -1 -7 -9 -4 -18 7 -21 14 -7 14 6 0 13 -4
16 -10z"/>
<path d="M2476 4562 c-3 -5 1 -9 9 -9 8 0 12 4 9 9 -3 4 -7 8 -9 8 -2 0 -6 -4
-9 -8z"/>
<path d="M2270 4540 c0 -5 5 -10 10 -10 6 0 10 5 10 10 0 6 -4 10 -10 10 -5 0
-10 -4 -10 -10z"/>
<path d="M2310 4460 c0 -5 5 -10 11 -10 5 0 7 5 4 10 -3 6 -8 10 -11 10 -2 0
-4 -4 -4 -10z"/>
<path d="M2490 4331 c0 -5 7 -12 16 -15 14 -5 15 -4 4 9 -14 17 -20 19 -20 6z"/>
<path d="M2565 4129 c-4 -6 -5 -12 -2 -15 2 -3 7 2 10 11 7 17 1 20 -8 4z"/>
<path d="M2477 3927 c3 -5 -1 -7 -8 -5 -8 1 -14 -2 -14 -7 0 -6 3 -9 8 -7 16
5 6 -16 -10 -23 -17 -6 -17 -7 0 -19 19 -15 24 -31 5 -20 -7 4 -8 3 -4 -5 6
-9 11 -9 22 0 8 7 14 7 14 1 0 -5 7 -13 16 -16 14 -5 15 -4 5 8 -11 13 -9 15
7 11 12 -2 27 4 34 13 11 15 11 15 -3 4 -14 -10 -16 -8 -15 17 1 18 5 27 11
23 6 -4 3 0 -7 9 -9 9 -15 18 -13 21 2 2 -9 4 -24 3 -16 0 -27 -4 -24 -8z m36
-53 c-6 -16 -33 -7 -33 11 0 17 23 25 32 12 3 -6 4 -16 1 -23z"/>
<path d="M2765 4542 c1 -9 -2 -20 -7 -23 -5 -3 0 -13 10 -22 17 -16 18 -15 19
18 1 19 -5 36 -12 39 -8 3 -12 -2 -10 -12z"/>
<path d="M2170 4518 c-11 -12 -20 -25 -20 -28 0 -16 64 -80 79 -79 10 0 12 2
3 6 -6 2 -9 10 -5 16 11 18 12 38 2 31 -13 -8 -11 10 3 24 9 9 9 12 -1 12 -8
0 -19 -7 -26 -16 -8 -12 -17 -14 -28 -7 -16 8 -16 11 -2 28 15 19 16 19 10 -5
l-6 -25 15 25 c27 45 12 56 -24 18z m40 -78 c0 -5 -2 -10 -4 -10 -3 0 -8 5
-11 10 -3 6 -1 10 4 10 6 0 11 -4 11 -10z"/>
<path d="M2346 4093 c-6 -14 -5 -15 5 -6 7 7 10 15 7 18 -3 3 -9 -2 -12 -12z"/>
<path d="M2430 3701 c0 -6 -20 -11 -47 -12 -27 0 -43 -3 -36 -5 7 -3 9 -12 6
-20 -3 -8 0 -14 6 -14 6 0 11 6 11 14 0 15 68 28 76 14 5 -8 -17 -12 -49 -10
-27 3 -15 -20 12 -25 13 -2 20 1 16 7 -9 14 8 12 24 -2 11 -10 12 -10 7 -1 -4
7 -2 23 5 35 6 13 8 20 4 16 -5 -4 -14 -3 -22 3 -9 9 -13 8 -13 0z"/>
<path d="M2705 3694 c2 -11 4 -27 4 -36 1 -10 5 -18 9 -18 11 0 7 49 -6 62 -8
8 -10 6 -7 -8z"/>
<path d="M2285 3691 c-31 -6 -40 -30 -19 -51 9 -9 10 -5 7 14 -3 15 -1 26 6
26 5 0 8 -6 5 -14 -3 -8 0 -17 7 -22 8 -4 10 -3 5 5 -10 15 13 43 27 34 6 -3
7 -1 3 5 -4 7 -8 11 -9 11 -1 -1 -15 -4 -32 -8z"/>
<path d="M2489 3681 c5 -9 6 -22 3 -30 -2 -8 0 -11 5 -8 15 10 13 54 -3 54 -9
0 -10 -6 -5 -16z"/>
<path d="M2563 3687 c-2 -4 -1 -7 4 -6 26 4 34 -1 21 -15 -7 -7 -20 -11 -28
-9 -13 4 -13 3 -1 -5 14 -10 51 4 51 20 0 5 12 8 26 8 14 0 23 -4 19 -10 -3
-5 -12 -7 -20 -3 -8 3 -15 1 -15 -5 0 -5 11 -12 25 -14 13 -3 22 -2 20 3 -3 4
2 14 10 22 13 14 8 16 -46 19 -34 1 -63 0 -66 -5z"/>
<path d="M2471 3664 c0 -11 3 -14 6 -6 3 7 2 16 -1 19 -3 4 -6 -2 -5 -13z"/>
<path d="M2310 3656 c0 -8 5 -18 12 -22 7 -5 8 -3 3 6 -4 7 -2 16 6 21 11 7
10 9 -3 9 -10 0 -18 -6 -18 -14z"/>
<path d="M1981 3490 c-66 -24 -122 -62 -155 -104 -14 -17 -43 -55 -65 -83 -85
-109 -235 -212 -384 -265 -98 -35 -109 -41 -159 -86 -86 -78 -118 -157 -123
-297 -6 -181 -65 -361 -167 -507 -63 -90 -73 -119 -73 -223 0 -102 15 -146 76
-230 99 -134 158 -312 164 -494 4 -124 24 -188 81 -258 51 -62 104 -98 182
-124 175 -57 323 -164 435 -313 83 -111 184 -166 304 -166 29 0 99 13 155 28
174 49 348 47 504 -4 86 -28 163 -31 238 -9 82 24 138 66 204 152 113 149 261
257 422 308 77 24 129 56 177 108 75 81 93 134 98 279 6 175 63 346 164 493
56 82 77 138 80 217 3 80 -23 161 -76 238 -74 105 -132 234 -148 331 -3 19 -8
42 -11 52 -3 11 -7 65 -9 120 -4 126 -28 195 -91 266 -54 60 -89 83 -174 112
-187 63 -311 157 -463 349 -93 119 -252 158 -417 104 -81 -26 -167 -38 -270
-37 -92 0 -143 8 -240 37 -103 31 -185 33 -259 6z"/>
</g>
</svg>
